<svg viewBox="0 0 48 48" xmlns="http://www.w3.org/2000/svg"><path d="M46 10a2 2 0 0 0 2-2V2a2 2 0 0 0-2-2h-6a2 2 0 0 0-2 2v2H10V2a2 2 0 0 0-2-2H2a2 2 0 0 0-2 2v6a2 2 0 0 0 2 2h2v28H2a2 2 0 0 0-2 2v6a2 2 0 0 0 2 2h6a2 2 0 0 0 2-2v-2h28v2a2 2 0 0 0 2 2h6a2 2 0 0 0 2-2v-6a2 2 0 0 0-2-2h-2V10ZM2 8V2h6v6Zm6 38H2v-6h6Zm30-6v2H10v-2a2 2 0 0 0-2-2H6V10h2a2 2 0 0 0 2-2V6h28v2a2 2 0 0 0 2 2h2v28h-2a2 2 0 0 0-2 2Zm8 0v6h-6v-6ZM40 8V2h6v6Z" data-name="45-Area" fill="#ffffff" class="fill-000000"></path></svg>